<svg xmlns="http://www.w3.org/2000/svg" viewBox="0 0 640 400" role="img" aria-labelledby="title desc">
  <title id="title">AI Gateway admin tile illustration</title>
  <desc id="desc">A graphite gateway console routing AI traffic through glowing ember and amber nodes.</desc>
  <defs>
    <linearGradient id="aiGatewayBg" x1="0" y1="0" x2="1" y2="1">
      <stop offset="0%" stop-color="#0E0F13"/>
      <stop offset="56%" stop-color="#171A20"/>
      <stop offset="100%" stop-color="#20242A"/>
    </linearGradient>
    <linearGradient id="aiGatewaySpark" x1="0" y1="0" x2="1" y2="1">
      <stop offset="0%" stop-color="#FFC247"/>
      <stop offset="100%" stop-color="#FF6A1F"/>
    </linearGradient>
    <filter id="aiGatewayGlow" x="-35%" y="-35%" width="170%" height="170%">
      <feGaussianBlur stdDeviation="9" result="blur"/>
      <feColorMatrix in="blur" type="matrix" values="1 0 0 0 1 0 0.58 0 0 0.48 0 0 0.16 0 0.18 0 0 0 0.78 0"/>
      <feBlend in="SourceGraphic" mode="screen"/>
    </filter>
  </defs>

  <rect width="640" height="400" fill="url(#aiGatewayBg)"/>
  <circle cx="96" cy="80" r="86" fill="#FFC247" fill-opacity="0.1"/>
  <circle cx="532" cy="318" r="124" fill="#FF6A1F" fill-opacity="0.11"/>
  <path d="M72 286c72-48 135-58 190-30 44 23 84 23 120 0 58-36 118-25 182 34" fill="none" stroke="#2B313C" stroke-width="4"/>

  <rect x="96" y="72" width="448" height="256" rx="30" fill="#171A20" stroke="#262B34" stroke-width="4"/>
  <rect x="122" y="98" width="396" height="204" rx="20" fill="#1B2026" stroke="#2B313C" stroke-width="2"/>

  <g transform="translate(168 132)" stroke-linecap="round" stroke-linejoin="round">
    <path d="M36 112h96l56-56h78" fill="none" stroke="#2B313C" stroke-width="16"/>
    <path d="M36 112h96l56-56h78" fill="none" stroke="url(#aiGatewaySpark)" stroke-width="8" filter="url(#aiGatewayGlow)"/>
    <path d="M132 112l56 56h78" fill="none" stroke="#2B313C" stroke-width="16"/>
    <path d="M132 112l56 56h78" fill="none" stroke="#19E3E3" stroke-width="8" opacity="0.86"/>
  </g>

  <g transform="translate(140 176)">
    <rect x="0" y="0" width="98" height="72" rx="18" fill="#20242A" stroke="#FFC247" stroke-opacity="0.38" stroke-width="3"/>
    <circle cx="26" cy="36" r="10" fill="#FF6A1F"/>
    <path d="M48 26h28M48 46h20" stroke="#FFC247" stroke-width="7" stroke-linecap="round"/>
  </g>

  <g transform="translate(274 142)">
    <rect x="0" y="0" width="110" height="106" rx="24" fill="#0E0F13" stroke="#FFC247" stroke-width="4"/>
    <path d="M35 62c0-19 12-34 28-34 15 0 27 15 27 34s-12 34-27 34c-16 0-28-15-28-34Z" fill="#20242A"/>
    <path d="M32 58h60M42 36c10 12 10 39 0 52M82 36c-10 12-10 39 0 52" fill="none" stroke="#FFC247" stroke-width="6" stroke-linecap="round"/>
    <circle cx="55" cy="62" r="8" fill="#FF6A1F"/>
  </g>

  <g transform="translate(422 112)">
    <rect x="0" y="0" width="82" height="58" rx="16" fill="#20242A" stroke="#FFC247" stroke-opacity="0.38" stroke-width="3"/>
    <rect x="18" y="18" width="46" height="8" rx="4" fill="#FFC247"/>
    <rect x="18" y="34" width="30" height="7" rx="3.5" fill="#17C696"/>
  </g>

  <g transform="translate(422 226)">
    <rect x="0" y="0" width="82" height="58" rx="16" fill="#20242A" stroke="#19E3E3" stroke-opacity="0.42" stroke-width="3"/>
    <rect x="18" y="18" width="46" height="8" rx="4" fill="#19E3E3"/>
    <rect x="18" y="34" width="30" height="7" rx="3.5" fill="#FFC247"/>
  </g>

  <g transform="translate(150 112)">
    <rect x="0" y="0" width="122" height="34" rx="17" fill="#20242A" stroke="#262B34" stroke-width="2"/>
    <circle cx="24" cy="17" r="7" fill="#17C696"/>
    <rect x="42" y="12" width="58" height="10" rx="5" fill="#C1C7D3" fill-opacity="0.82"/>
  </g>

  <path d="M248 272h142" stroke="#2B313C" stroke-width="8" stroke-linecap="round"/>
  <circle cx="248" cy="272" r="9" fill="#FFC247"/>
  <circle cx="319" cy="272" r="9" fill="#FF6A1F"/>
  <circle cx="390" cy="272" r="9" fill="#17C696"/>
</svg>
