<svg xmlns="http://www.w3.org/2000/svg" viewBox="0 0 640 400" role="img" aria-labelledby="title desc">
  <title id="title">Batch tile illustration</title>
  <desc id="desc">Pipeline style cards flowing through a process.</desc>
  <defs>
    <linearGradient id="bg" x1="0" y1="0" x2="0" y2="1">
      <stop offset="0%" stop-color="#171A20"/>
      <stop offset="100%" stop-color="#1F242D"/>
    </linearGradient>
  </defs>
  <rect width="640" height="400" fill="url(#bg)"/>

  <path d="M86 298H548" stroke="#2A313D" stroke-width="22" stroke-linecap="round"/>
  <circle cx="176" cy="298" r="11" fill="#FFC247"/>
  <circle cx="316" cy="298" r="11" fill="#FFC247"/>
  <circle cx="456" cy="298" r="11" fill="#FFC247"/>

  <g transform="translate(114 124)">
    <rect x="0" y="0" width="118" height="122" rx="14" fill="#2C333E" stroke="#FFC247" stroke-opacity="0.35" stroke-width="2"/>
    <rect x="18" y="22" width="82" height="10" rx="5" fill="#FFB84E"/>
    <rect x="18" y="44" width="64" height="8" rx="4" fill="#FFB84E" fill-opacity="0.62"/>
    <circle cx="34" cy="86" r="14" fill="#FF6A1F"/>
  </g>

  <g transform="translate(262 98)">
    <rect x="0" y="0" width="118" height="146" rx="14" fill="#FF6A1F"/>
    <rect x="10" y="10" width="98" height="126" rx="10" fill="#1B2026"/>
    <path d="M26 54l17 17 37-37" fill="none" stroke="#FFC247" stroke-width="9" stroke-linecap="round" stroke-linejoin="round"/>
    <rect x="22" y="88" width="70" height="8" rx="4" fill="#FFC247" fill-opacity="0.58"/>
  </g>

  <g transform="translate(410 124)">
    <rect x="0" y="0" width="118" height="122" rx="14" fill="#2C333E" stroke="#FFC247" stroke-opacity="0.35" stroke-width="2"/>
    <rect x="18" y="22" width="82" height="10" rx="5" fill="#FFB84E"/>
    <rect x="18" y="44" width="64" height="8" rx="4" fill="#FFB84E" fill-opacity="0.62"/>
    <path d="M26 86h66" stroke="#2F8F83" stroke-width="10" stroke-linecap="round"/>
  </g>

  <path d="M236 177h18M384 177h18" stroke="#FFC247" stroke-width="8" stroke-linecap="round"/>
</svg>
