<svg xmlns="http://www.w3.org/2000/svg" viewBox="0 0 96 96" fill="none">
  <rect width="96" height="96" rx="24" fill="#0B2A42"/>
  <circle cx="48" cy="48" r="28" fill="#FFB703" opacity="0.18"/>
  <path d="M25 54c0-12.15 9.85-22 22-22h8c8.84 0 16 7.16 16 16v17H39c-7.73 0-14-6.27-14-14v3Z" fill="#fff"/>
  <path d="M41 37h14" stroke="#0B2A42" stroke-width="5" stroke-linecap="round"/>
  <path d="M41 46h20" stroke="#0B2A42" stroke-width="5" stroke-linecap="round"/>
  <path d="M41 55h11" stroke="#0B2A42" stroke-width="5" stroke-linecap="round"/>
  <circle cx="66" cy="28" r="10" fill="#38BDF8"/>
  <path d="m66 20 2.6 5.4 5.9.9-4.2 4.1 1 5.8L66 33.5l-5.3 2.7 1-5.8-4.2-4.1 5.9-.9L66 20Z" fill="#fff"/>
</svg>
