<svg xmlns="http://www.w3.org/2000/svg" viewBox="0 0 640 400" role="img" aria-labelledby="title desc">
  <title id="title">Runpod tile illustration</title>
  <desc id="desc">An amber cloud connected to an ember GPU chip and two graphite compute pods.</desc>
  <defs>
    <linearGradient id="runpodBg" x1="0" y1="0" x2="1" y2="1">
      <stop offset="0%" stop-color="#0E0F13"/>
      <stop offset="100%" stop-color="#20242A"/>
    </linearGradient>
  </defs>

  <rect width="640" height="400" fill="url(#runpodBg)"/>
  <circle cx="526" cy="88" r="104" fill="#FF6A1F" fill-opacity="0.12"/>
  <circle cx="108" cy="326" r="126" fill="#FFC247" fill-opacity="0.1"/>
  <rect x="96" y="68" width="448" height="264" rx="30" fill="#171A20" stroke="#262B34" stroke-width="4"/>
  <rect x="120" y="94" width="400" height="212" rx="20" fill="#1B2026" stroke="#2B313C" stroke-width="2"/>

  <g stroke-linecap="round" stroke-linejoin="round">
    <path d="M266 178h116c23 0 38-15 38-34s-16-34-36-34h-8c-6-29-27-46-54-46-30 0-54 22-57 50-19 0-35 14-35 32s16 32 36 32Z" fill="#20242A" stroke="#FFC247" stroke-width="5"/>
    <path d="M320 178v34M266 258h-34M374 258h34" fill="none" stroke="#FFC247" stroke-width="7"/>
    <g stroke="#FF6A1F" stroke-width="5">
      <path d="M292 220v-12M320 220v-12M348 220v-12M292 296v12M320 296v12M348 296v12M282 240h-12M282 276h-12M358 240h12M358 276h12"/>
      <rect x="282" y="220" width="76" height="76" rx="12" fill="#20242A"/>
    </g>
    <rect x="300" y="238" width="40" height="40" rx="6" fill="#0E0F13" stroke="#FFC247" stroke-width="3"/>
    <path d="M311 258h18M320 249v18" stroke="#FFC247" stroke-width="4"/>

    <rect x="146" y="224" width="86" height="68" rx="14" fill="#20242A" stroke="#C1C7D3" stroke-width="3"/>
    <rect x="408" y="224" width="86" height="68" rx="14" fill="#20242A" stroke="#C1C7D3" stroke-width="3"/>
    <path d="M162 243h54M424 243h54" stroke="#C1C7D3" stroke-width="6"/>
    <path d="M162 273h24M424 273h24" stroke="#FFC247" stroke-width="6"/>
    <circle cx="210" cy="273" r="5" fill="#FF6A1F"/>
    <circle cx="472" cy="273" r="5" fill="#FF6A1F"/>
  </g>
</svg>
